<svg xmlns="http://www.w3.org/2000/svg" width="31.087" height="24.841" viewBox="0 0 31.087 24.841">
  <path id="Path_81" data-name="Path 81" d="M2.308-1a2.63,2.63,0,0,1,1.1.243L8.287,1.48A19.936,19.936,0,0,1,14.544.5a19.923,19.923,0,0,1,6.257.98L25.675-.758A2.633,2.633,0,0,1,26.779-1a2.65,2.65,0,0,1,2.635,2.9v.014L28.83,7.551a9.132,9.132,0,0,1-.051,9.335,12.164,12.164,0,0,1-3.425,3.691,18.512,18.512,0,0,1-10.81,3.264,18.512,18.512,0,0,1-10.81-3.264A12.164,12.164,0,0,1,.309,16.886,9.135,9.135,0,0,1,.289,7.5l-.616-5.6A2.649,2.649,0,0,1,2.308-1ZM25.823,7.466l.542-5.239L21.632,4.4l0,0-.607.346-.655-.241A17.033,17.033,0,0,0,14.544,3.5,16.814,16.814,0,0,0,8.719,4.506l-.655.241L7.458,4.4h0L2.727,2.229l.572,5.2a1.763,1.763,0,0,1-.313,1.4A6.334,6.334,0,0,0,2,12.171a7.511,7.511,0,0,0,3.493,5.976,15.5,15.5,0,0,0,9.05,2.694,15.5,15.5,0,0,0,9.05-2.694,7.511,7.511,0,0,0,3.493-5.976,6.367,6.367,0,0,0-1.05-3.443l-.124-.2-.059-.223a2,2,0,0,1-.034-.824Z" transform="translate(1 1.001)" fill="#fff"/>
</svg>
